<svg width="70" height="70" viewBox="0 0 70 70" fill="none" xmlns="http://www.w3.org/2000/svg">
<ellipse cx="31.2977" cy="31.25" rx="31.2977" ry="31.25" fill="#F7FCFA"/>
<path d="M58.9115 28.8396C58.7934 28.8401 58.6771 28.8693 58.5728 28.9247C58.4685 28.9801 58.3793 29.0599 58.3128 29.1574L54.7102 34.449C54.1861 35.2192 53.882 36.1175 53.8308 37.0473C53.7795 37.9771 53.983 38.9033 54.4193 39.7263C54.8556 40.5494 55.5083 41.2381 56.3072 41.7186C57.1062 42.199 58.0211 42.453 58.9537 42.4533H58.9807C59.9157 42.4486 60.8316 42.1889 61.6295 41.7023C62.4274 41.2157 63.0771 40.5207 63.5082 39.6923C63.9393 38.8639 64.1356 37.9337 64.0758 37.002C64.016 36.0704 63.7024 35.1727 63.1688 34.4061L59.5131 29.1516C59.4476 29.0529 59.358 28.9725 59.2527 28.9179C59.1475 28.8634 59.03 28.8364 58.9115 28.8396V28.8396ZM61.5664 39.9108C60.9218 40.561 60.0571 40.9473 59.1419 40.9939C58.2268 41.0405 57.3272 40.744 56.6197 40.1626C55.9122 39.5811 55.4477 38.7568 55.3175 37.8511C55.1873 36.9454 55.4006 36.0239 55.9157 35.2672L58.9246 30.8505L61.975 35.2359C62.4643 35.9402 62.6913 36.7932 62.6166 37.647C62.542 38.5009 62.1705 39.3018 61.5664 39.9108V39.9108ZM35.6895 50.9346L34.342 50.3776C33.7376 51.8363 33.4885 53.4173 33.6151 54.9909C33.7417 56.5644 34.2405 58.0855 35.0704 59.4291L36.3086 58.664C35.6003 57.5165 35.1748 56.2174 35.0672 54.8737C34.9596 53.53 35.1728 52.18 35.6895 50.9346V50.9346Z" fill="#637A75"/>
<path d="M67.6638 48.7411C64.2814 49.0401 61.021 50.1484 58.1586 51.9724C57.8246 49.7702 56.9959 47.672 55.7345 45.835L44.1556 29.0155C44.0851 28.9234 43.9943 28.8487 43.8902 28.7974C43.7861 28.746 43.6715 28.7192 43.5554 28.7192C43.4393 28.7192 43.3247 28.746 43.2206 28.7974C43.1166 28.8487 43.0257 28.9234 42.9552 29.0155L31.3792 45.8357C29.5976 48.41 28.683 51.4838 28.7681 54.6118C28.8532 57.7398 29.9335 60.7595 31.8525 63.2335C33.7714 65.7074 36.4294 67.5071 39.4413 68.3718C42.4532 69.2364 45.6626 69.1212 48.6045 68.0427C50.3403 69.3022 52.4314 69.9795 54.5772 69.9773C55.2376 69.9795 55.8966 69.9141 56.5438 69.7824L56.5401 69.7976C57.1983 69.9366 57.8696 70.0044 58.5424 69.9998C60.1404 69.9948 61.7175 69.6375 63.1612 68.9535C64.6049 68.2695 65.8795 67.2756 66.8939 66.0428C72.7559 59.3097 68.5539 49.584 68.3725 49.1739C68.3117 49.0389 68.2116 48.9254 68.0851 48.8482C67.9587 48.771 67.8119 48.7337 67.6638 48.7411V48.7411ZM34.1383 63.5933C31.939 61.3967 30.579 58.5008 30.2943 55.4078C30.0096 52.3147 30.8181 49.2198 32.5796 46.6597L43.5547 30.7115L54.5313 46.6597C55.8203 48.5355 56.6053 50.7104 56.8111 52.976C52.6972 48.9913 46.7326 48.147 46.3953 48.1033C46.2478 48.0837 46.0977 48.1097 45.9654 48.1779C45.8331 48.246 45.7249 48.353 45.6553 48.4844C45.4455 48.8808 40.5705 58.2887 45.9467 65.4151C46.3578 65.9604 46.8107 66.473 47.3014 66.9482C45.0078 67.6204 42.5752 67.6637 40.259 67.0734C37.9429 66.483 35.8286 65.281 34.1383 63.5933V63.5933ZM47.1121 64.5388C42.9356 58.9992 45.8483 51.5622 46.7224 49.6342C48.8026 50.04 56.5605 51.9818 58.6604 58.5905C60.2235 63.5111 58.0828 66.5904 56.9313 67.8071L51.0074 56.3432L49.7131 57.0094L55.6333 68.4682C53.9653 68.6856 50.1938 68.6267 47.1121 64.5395V64.5388ZM65.7941 65.0879C64.8761 66.198 63.7167 67.0847 62.4042 67.6806C61.0916 68.2766 59.6604 68.566 58.219 68.5271C59.6153 66.8958 61.7152 63.3773 60.0531 58.1498C59.5784 56.6547 58.8191 55.2652 57.817 54.0574C61.1675 51.2109 65.7132 50.432 67.2355 50.2458C67.9705 52.232 70.3588 59.8443 65.7941 65.0886V65.0879Z" fill="#637A75"/>
</svg>
