<svg width="71" height="71" viewBox="0 0 71 71" fill="none" xmlns="http://www.w3.org/2000/svg">
<path d="M31.246 63.0572C48.5026 63.0572 62.4919 48.9414 62.4919 31.5286C62.4919 14.1158 48.5026 0 31.246 0C13.9893 0 0 14.1158 0 31.5286C0 48.9414 13.9893 63.0572 31.246 63.0572Z" fill="#F7FCFA"/>
<path d="M50.5001 60.2708C50.3813 60.2708 50.2625 60.2249 50.1715 60.1341L47.1888 57.1253L43.2835 58.7299C43.1694 58.7777 43.0421 58.7758 42.928 58.7281C42.8147 58.6793 42.7247 58.5885 42.6782 58.4733L41.1354 54.645H37.0398C36.7836 54.645 36.5756 54.4352 36.5756 54.1767V49.9221L32.6888 48.2698C32.5756 48.2211 32.4856 48.1302 32.4391 48.015C32.3927 47.8998 32.3927 47.7715 32.441 47.6563L34.0311 43.8486L31.1358 40.9261C30.9547 40.7435 30.9547 40.4465 31.1358 40.2639L34.1175 37.2552L32.5273 33.3135C32.4308 33.0737 32.545 32.8012 32.7816 32.7038L36.5756 31.1451V27.0124C36.5756 26.7538 36.7836 26.544 37.0398 26.544H41.257L42.8946 22.6221C42.9428 22.5078 43.0329 22.417 43.1471 22.3701C43.2613 22.3223 43.3894 22.3242 43.5026 22.372L47.2752 23.9765L50.1715 21.055C50.3525 20.8723 50.6468 20.8723 50.8278 21.055L53.8104 24.0637L57.7158 22.4591C57.83 22.4114 57.9571 22.4132 58.0714 22.4609C58.1846 22.5097 58.2747 22.6005 58.321 22.7157L59.8648 26.544H63.9606C64.2167 26.544 64.4247 26.7538 64.4247 27.0124V31.2669L68.3114 32.9192C68.4247 32.9679 68.5147 33.0588 68.5612 33.174C68.6076 33.2892 68.6076 33.4175 68.5593 33.5327L66.9691 37.3404L69.8645 40.2629C70.0456 40.4455 70.0456 40.7425 69.8645 40.9251L66.8828 43.9338L68.4729 47.8755C68.5695 48.1153 68.4553 48.3878 68.2187 48.4852L64.4247 50.0439V54.1767C64.4247 54.4352 64.2167 54.645 63.9606 54.645H59.7432L58.1057 58.5669C58.0574 58.6812 57.9674 58.772 57.8532 58.8189C57.739 58.8667 57.6119 58.8648 57.4977 58.817L53.7251 57.2125L50.8288 60.1341C50.7378 60.2249 50.619 60.2708 50.5001 60.2708ZM47.3002 56.1053C47.4209 56.1053 47.5398 56.1531 47.6289 56.242L50.5001 59.1402L53.2888 56.3273C53.4234 56.1924 53.623 56.1521 53.7975 56.227L57.4309 57.7717L59.0071 53.9949C59.0795 53.8216 59.2484 53.7083 59.435 53.7083H63.4964V49.7292C63.4964 49.539 63.6105 49.3676 63.786 49.2955L67.4389 47.7949L65.9081 43.9994C65.8376 43.8251 65.8775 43.6247 66.0093 43.4917L68.8796 40.5945L66.0909 37.7807C65.9573 37.6458 65.9174 37.4435 65.9916 37.2673L67.5224 33.6002L63.7804 32.0096C63.6078 31.9366 63.4964 31.7671 63.4964 31.5788V27.4807H59.5529C59.3645 27.4807 59.1937 27.3655 59.1231 27.1885L57.636 23.5035L53.8745 25.0481C53.7028 25.1193 53.5042 25.0791 53.3714 24.946L50.5001 22.0488L47.7116 24.8618C47.5779 24.9967 47.3764 25.0369 47.2028 24.962L43.5694 23.4173L41.9932 27.1941C41.9208 27.3674 41.7518 27.4807 41.5653 27.4807H37.5039V31.4598C37.5039 31.65 37.3898 31.8214 37.2143 31.8935L33.5614 33.3941L35.0922 37.1896C35.1627 37.3639 35.1228 37.5643 34.991 37.6973L32.1207 40.5945L34.9093 43.4084C35.043 43.5433 35.0829 43.7456 35.0086 43.9217L33.4779 47.5888L37.2198 49.1794C37.3925 49.2524 37.5039 49.4219 37.5039 49.6102V53.7083H41.4473C41.6358 53.7083 41.8066 53.8235 41.8772 54.0005L43.3643 57.6855L47.1258 56.1409C47.1814 56.1165 47.2408 56.1053 47.3002 56.1053Z" fill="#637A75" stroke="#637A75" stroke-width="0.3"/>
<path d="M50.5001 53.7085C43.3336 53.7085 37.5039 47.826 37.5039 40.5947C37.5039 33.3634 43.3336 27.481 50.5001 27.481C57.6666 27.481 63.4963 33.3634 63.4963 40.5947C63.4963 47.826 57.6666 53.7085 50.5001 53.7085ZM50.5001 28.4177C43.8461 28.4177 38.4322 33.8805 38.4322 40.5947C38.4322 47.309 43.8461 52.7718 50.5001 52.7718C57.1542 52.7718 62.568 47.309 62.568 40.5947C62.568 33.8805 57.1542 28.4177 50.5001 28.4177Z" fill="#637A75" stroke="#637A75" stroke-width="0.3"/>
<path d="M47.8726 47.7999C47.7537 47.7999 47.6349 47.754 47.544 47.6632L41.6363 41.702C41.4553 41.5193 41.4553 41.2224 41.6363 41.0398L43.6052 39.0521C43.7797 38.876 44.0879 38.876 44.2615 39.0521L47.8726 42.6949L56.7341 33.7532C56.9152 33.5706 57.2094 33.5706 57.3904 33.7532L59.3594 35.7399C59.5404 35.9225 59.5404 36.2195 59.3594 36.4021L48.2003 47.6632C48.1102 47.7549 47.9914 47.7999 47.8726 47.7999ZM42.6212 41.3714L47.8726 46.6702L58.3745 36.0724L57.0618 34.7479L48.2003 43.6897C48.0193 43.8723 47.725 43.8723 47.544 43.6897L43.9329 40.0469L42.6212 41.3714ZM57.3192 69.9991C57.1327 69.9991 56.9636 69.8858 56.8913 69.7125L51.948 58.4543C51.8486 58.2155 51.96 57.9411 52.1959 57.8408C52.4344 57.7415 52.7045 57.853 52.8039 58.0909L57.3118 68.3074L59.8591 61.9931C59.9055 61.8779 59.9946 61.7861 60.1088 61.7384C60.2229 61.6906 60.3501 61.6897 60.4643 61.7366L66.7219 64.3069L62.2977 54.5C62.1984 54.2612 62.3098 53.9867 62.5455 53.8865C62.7832 53.7872 63.0543 53.8986 63.1536 54.1366L68.0133 64.985C68.0856 65.1601 68.0476 65.3616 67.9158 65.4964C67.7839 65.6313 67.5844 65.6725 67.4108 65.6003L60.5451 62.78L57.75 69.7078C57.6794 69.8839 57.5104 69.9982 57.3229 70.0001C57.3211 69.9991 57.3192 69.9991 57.3192 69.9991ZM43.6814 69.9991H43.6786C43.4912 69.9982 43.3221 69.883 43.2516 69.7068L40.4556 62.7791L33.5908 65.6003C33.3522 65.6988 33.0821 65.5826 32.9865 65.3438C32.8899 65.104 33.0041 64.8314 33.2408 64.734L40.5355 61.7366C40.7721 61.6372 41.0432 61.7533 41.1398 61.9931L43.6879 68.3074L48.0347 57.8408C48.135 57.602 48.4088 57.4933 48.6428 57.5908C48.8785 57.691 48.9899 57.9654 48.8906 58.2043L44.1093 69.7125C44.037 69.8858 43.868 69.9991 43.6814 69.9991ZM34.8505 62.1974C34.7911 62.1974 34.7289 62.1852 34.6704 62.1608C34.4346 62.0606 34.3232 61.7861 34.4225 61.5473L35.1216 59.8725C35.2218 59.6337 35.4911 59.5222 35.7296 59.6224C35.9654 59.7226 36.0767 59.997 35.9774 60.2359L35.2785 61.9107C35.2033 62.0906 35.0315 62.1974 34.8505 62.1974ZM36.5484 58.1321C36.4881 58.1321 36.4268 58.12 36.3683 58.0956C36.1325 57.9954 36.0211 57.7209 36.1204 57.482L37.6717 54.1366C37.772 53.8977 38.0449 53.7881 38.2798 53.8865C38.5155 53.9867 38.6269 54.2612 38.5276 54.5L36.9763 57.8455C36.9011 58.0243 36.7303 58.1321 36.5484 58.1321Z" fill="#637A75" stroke="#637A75" stroke-width="0.3"/>
</svg>
