<svg width="42" height="42" viewBox="0 0 42 42" fill="none" xmlns="http://www.w3.org/2000/svg">
<path d="M21.1634 1H21.1533C10.0385 1 1.00003 9.96999 1.00003 21C0.993124 25.2125 2.33715 29.318 4.83766 32.7225L2.32543 40.1525L10.0738 37.695C13.3605 39.8584 17.2191 41.0083 21.1634 41C32.2781 41 41.3166 32.0275 41.3166 21C41.3166 9.97249 32.2781 1 21.1634 1ZM32.893 29.2425C32.4067 30.605 30.4765 31.735 28.9369 32.065C27.8836 32.2875 26.5078 32.465 21.8765 30.56C15.9524 28.125 12.1375 22.1525 11.8402 21.765C11.5554 21.3775 9.44635 18.6025 9.44635 15.7325C9.44635 12.8625 10.9154 11.465 11.5075 10.865C11.9939 10.3725 12.7977 10.1475 13.5687 10.1475C13.8182 10.1475 14.0424 10.16 14.244 10.17C14.8362 10.195 15.1335 10.23 15.5241 11.1575C16.0104 12.32 17.1947 15.19 17.3358 15.485C17.4794 15.78 17.6231 16.18 17.4215 16.5675C17.2325 16.9675 17.0662 17.145 16.7689 17.485C16.4715 17.825 16.1893 18.085 15.892 18.45C15.6198 18.7675 15.3124 19.1075 15.6551 19.695C15.9978 20.27 17.1821 22.1875 18.9258 23.7275C21.176 25.715 23.0003 26.35 23.6529 26.62C24.1392 26.82 24.7188 26.7725 25.0741 26.3975C25.5251 25.915 26.082 25.115 26.6489 24.3275C27.0521 23.7625 27.5611 23.6925 28.0953 23.8925C28.6396 24.08 31.5197 25.4925 32.1118 25.785C32.704 26.08 33.0946 26.22 33.2382 26.4675C33.3793 26.715 33.3793 27.8775 32.893 29.2425Z" fill="#2DA884"/>
<path d="M32.893 29.2425C32.4067 30.605 30.4765 31.735 28.9369 32.065C27.8836 32.2875 26.5078 32.465 21.8765 30.56C15.9524 28.125 12.1375 22.1525 11.8402 21.765C11.5554 21.3775 9.44635 18.6025 9.44635 15.7325C9.44635 12.8625 10.9154 11.465 11.5075 10.865C11.9939 10.3725 12.7977 10.1475 13.5687 10.1475C13.8182 10.1475 14.0424 10.16 14.244 10.17C14.8362 10.195 15.1335 10.23 15.5241 11.1575C16.0104 12.32 17.1947 15.19 17.3358 15.485C17.4794 15.78 17.6231 16.18 17.4215 16.5675C17.2325 16.9675 17.0662 17.145 16.7689 17.485C16.4715 17.825 16.1893 18.085 15.892 18.45C15.6198 18.7675 15.3124 19.1075 15.6551 19.695C15.9978 20.27 17.1821 22.1875 18.9258 23.7275C21.176 25.715 23.0003 26.35 23.6529 26.62C24.1392 26.82 24.7188 26.7725 25.0741 26.3975C25.5251 25.915 26.082 25.115 26.6489 24.3275C27.0521 23.7625 27.5611 23.6925 28.0953 23.8925C28.6396 24.08 31.5197 25.4925 32.1118 25.785C32.704 26.08 33.0946 26.22 33.2382 26.4675C33.3793 26.715 33.3793 27.8775 32.893 29.2425Z" fill="#2DA884"/>
<path d="M21.1634 1H21.1533C10.0385 1 1.00003 9.96999 1.00003 21C0.993124 25.2125 2.33715 29.318 4.83766 32.7225L2.32543 40.1525L10.0738 37.695C13.3605 39.8584 17.2191 41.0083 21.1634 41C32.2781 41 41.3166 32.0275 41.3166 21C41.3166 9.97249 32.2781 1 21.1634 1ZM32.893 29.2425C32.4067 30.605 30.4765 31.735 28.9369 32.065C27.8836 32.2875 26.5078 32.465 21.8765 30.56C15.9524 28.125 12.1375 22.1525 11.8402 21.765C11.5554 21.3775 9.44635 18.6025 9.44635 15.7325C9.44635 12.8625 10.9154 11.465 11.5075 10.865C11.9939 10.3725 12.7977 10.1475 13.5687 10.1475C13.8182 10.1475 14.0424 10.16 14.244 10.17C14.8362 10.195 15.1335 10.23 15.5241 11.1575C16.0104 12.32 17.1947 15.19 17.3358 15.485C17.4794 15.78 17.6231 16.18 17.4215 16.5675C17.2325 16.9675 17.0662 17.145 16.7689 17.485C16.4715 17.825 16.1893 18.085 15.892 18.45C15.6198 18.7675 15.3124 19.1075 15.6551 19.695C15.9978 20.27 17.1821 22.1875 18.9258 23.7275C21.176 25.715 23.0003 26.35 23.6529 26.62C24.1392 26.82 24.7188 26.7725 25.0741 26.3975C25.5251 25.915 26.082 25.115 26.6489 24.3275C27.0521 23.7625 27.5611 23.6925 28.0953 23.8925C28.6396 24.08 31.5197 25.4925 32.1118 25.785C32.704 26.08 33.0946 26.22 33.2382 26.4675C33.3793 26.715 33.3793 27.8775 32.893 29.2425Z" stroke="white"/>
<path d="M32.893 29.2425C32.4067 30.605 30.4765 31.735 28.9369 32.065C27.8836 32.2875 26.5078 32.465 21.8765 30.56C15.9524 28.125 12.1375 22.1525 11.8402 21.765C11.5554 21.3775 9.44635 18.6025 9.44635 15.7325C9.44635 12.8625 10.9154 11.465 11.5075 10.865C11.9939 10.3725 12.7977 10.1475 13.5687 10.1475C13.8182 10.1475 14.0424 10.16 14.244 10.17C14.8362 10.195 15.1335 10.23 15.5241 11.1575C16.0104 12.32 17.1947 15.19 17.3358 15.485C17.4794 15.78 17.6231 16.18 17.4215 16.5675C17.2325 16.9675 17.0662 17.145 16.7689 17.485C16.4715 17.825 16.1893 18.085 15.892 18.45C15.6198 18.7675 15.3124 19.1075 15.6551 19.695C15.9978 20.27 17.1821 22.1875 18.9258 23.7275C21.176 25.715 23.0003 26.35 23.6529 26.62C24.1392 26.82 24.7188 26.7725 25.0741 26.3975C25.5251 25.915 26.082 25.115 26.6489 24.3275C27.0521 23.7625 27.5611 23.6925 28.0953 23.8925C28.6396 24.08 31.5197 25.4925 32.1118 25.785C32.704 26.08 33.0946 26.22 33.2382 26.4675C33.3793 26.715 33.3793 27.8775 32.893 29.2425Z" stroke="white"/>
</svg>
