<svg width="70" height="70" viewBox="0 0 70 70" fill="none" xmlns="http://www.w3.org/2000/svg">
<path d="M31.5556 63.3056C48.9833 63.3056 63.1112 49.1342 63.1112 31.6528C63.1112 14.1714 48.9833 0 31.5556 0C14.1279 0 0 14.1714 0 31.6528C0 49.1342 14.1279 63.3056 31.5556 63.3056Z" fill="#F7FCFA"/>
<path d="M34.3691 44.5984C34.3691 44.8402 34.4649 45.072 34.6352 45.2428C34.8056 45.4137 35.0367 45.5097 35.2776 45.5097H37.2182C38.0184 47.4337 39.5351 48.9688 41.4459 49.7885C43.3567 50.6082 45.5109 50.648 47.4506 49.8994C47.5619 49.8564 47.6637 49.7918 47.7502 49.7093C47.8366 49.6269 47.9061 49.5282 47.9545 49.4188C48.0029 49.3094 48.0294 49.1915 48.0324 49.072C48.0354 48.9523 48.0149 48.8332 47.972 48.7216C47.9292 48.6099 47.8648 48.5077 47.7826 48.4211C47.7004 48.3343 47.602 48.2647 47.4929 48.216C47.3839 48.1675 47.2664 48.1409 47.1471 48.1379C47.0278 48.1349 46.9092 48.1555 46.7978 48.1985C45.4256 48.729 43.9095 48.7496 42.5235 48.2564C41.1375 47.7633 39.9731 46.7891 39.2409 45.5097H45.0438C45.2847 45.5097 45.5158 45.4137 45.6862 45.2428C45.8565 45.072 45.9522 44.8402 45.9522 44.5984C45.9522 44.3568 45.8565 44.125 45.6862 43.9542C45.5158 43.7832 45.2847 43.6872 45.0438 43.6872H38.5509C38.4277 43.088 38.3937 42.4738 38.45 41.8646H45.7251C45.9661 41.8646 46.1971 41.7686 46.3675 41.5977C46.5379 41.4269 46.6336 41.1951 46.6336 40.9533C46.6336 40.7117 46.5379 40.4799 46.3675 40.309C46.1971 40.1381 45.9661 40.0421 45.7251 40.0421H38.9027C39.5235 38.5609 40.695 37.3805 42.1688 36.751C43.6426 36.1216 45.3029 36.0927 46.7976 36.6704C46.9089 36.7134 47.0276 36.734 47.1469 36.731C47.2662 36.7281 47.3837 36.7015 47.4927 36.6529C47.6018 36.6044 47.7002 36.5348 47.7825 36.4481C47.8647 36.3613 47.9291 36.2592 47.972 36.1476C48.0149 36.0359 48.0354 35.9169 48.0324 35.7972C48.0294 35.6775 48.003 35.5597 47.9546 35.4503C47.9062 35.3409 47.8368 35.2422 47.7504 35.1597C47.6639 35.0772 47.5621 35.0126 47.4508 34.9696C46.4332 34.5762 45.3461 34.3961 44.2564 34.4407C43.1668 34.4855 42.0979 34.7537 41.1157 35.2292C40.1336 35.7045 39.259 36.377 38.5462 37.2047C37.8333 38.0326 37.2972 38.9982 36.9711 40.0421H35.2776C35.0367 40.0421 34.8056 40.1381 34.6352 40.309C34.4649 40.4799 34.3691 40.7117 34.3691 40.9533C34.3691 41.1951 34.4649 41.4269 34.6352 41.5977C34.8056 41.7686 35.0367 41.8646 35.2776 41.8646H36.6272C36.5838 42.4731 36.6099 43.0846 36.7048 43.6872H35.2776C35.0367 43.6872 34.8056 43.7832 34.6352 43.9542C34.4649 44.125 34.3691 44.3568 34.3691 44.5984Z" fill="#637A75"/>
<path d="M28.3801 46.1371C29.6073 49.8963 32.2438 53.0293 35.7322 54.874V64.9059C35.7322 67.6883 38.0105 69.9999 40.7844 69.9999H45.2156C47.9895 69.9999 50.2678 67.6883 50.2678 64.9059V54.8705C52.9933 53.3693 55.3727 50.9939 56.7933 48.1384C57.9226 45.8638 58.4754 43.3451 58.4028 40.8052C58.3303 38.2652 57.6346 35.7823 56.3774 33.5764C55.1202 31.3704 53.3402 29.5093 51.195 28.1578C49.0498 26.8064 46.6056 26.0063 44.0786 25.8283C41.5516 25.6502 39.0199 26.0999 36.7074 27.1373C34.395 28.1748 32.3732 29.7681 30.8209 31.7761C29.2687 33.7842 28.2339 36.1452 27.8082 38.65C27.3824 41.1548 27.5789 43.7263 28.3801 46.1368V46.1371ZM48.4509 64.9059C48.4509 66.6834 46.9875 68.1774 45.2156 68.1774H40.7844C39.0129 68.1774 37.5491 66.6834 37.5491 64.9059V64.5322H48.4509V64.9059ZM48.4509 62.7097H37.5491V59.5202H48.4509V62.7097ZM30.8432 35.154C31.6335 33.5421 32.7337 32.1026 34.0806 30.9187C35.4275 29.7347 36.9944 28.8295 38.6913 28.2551C40.3882 27.6808 42.1816 27.4487 43.9682 27.572C45.7549 27.6953 47.4996 28.1718 49.102 28.9739C50.7045 29.7761 52.133 30.8881 53.3054 32.2461C54.4779 33.604 55.3711 35.181 55.9338 36.8864C56.4964 38.5919 56.7174 40.3921 56.584 42.1835C56.4506 43.9749 55.9654 45.7222 55.1564 47.3249C53.8357 49.9666 51.6994 52.1095 49.0658 53.4342C49.0431 53.4456 49.0331 53.4579 49.012 53.4708C48.8445 53.5389 48.7014 53.656 48.6013 53.8069C48.5012 53.9579 48.4488 54.1356 48.4509 54.3169V57.6977H46.2932V53.8532C46.2932 53.6116 46.1975 53.3798 46.0271 53.2089C45.8568 53.0379 45.6257 52.9419 45.3848 52.9419C45.1438 52.9419 44.9127 53.0379 44.7424 53.2089C44.572 53.3798 44.4763 53.6116 44.4763 53.8532V57.6977H41.5237V53.8532C41.5237 53.6116 41.428 53.3798 41.2576 53.2089C41.0873 53.0379 40.8562 52.9419 40.6152 52.9419C40.3743 52.9419 40.1432 53.0379 39.9728 53.2089C39.8025 53.3798 39.7068 53.6116 39.7068 53.8532V57.6977H37.5491V54.3169C37.5512 54.1355 37.4988 53.9578 37.3986 53.8068C37.2984 53.6559 37.1552 53.5388 36.9876 53.4708C36.9664 53.4579 36.9507 53.4455 36.9284 53.4343C35.3321 52.6349 33.9085 51.5279 32.7388 50.1766C31.5691 48.8252 30.6762 47.256 30.1111 45.5585C29.546 43.861 29.3198 42.0685 29.4454 40.2833C29.5711 38.498 30.046 36.7551 30.8432 35.154ZM43 21.2796C43.2409 21.2796 43.472 21.1836 43.6424 21.0127C43.8128 20.8419 43.9085 20.6101 43.9085 20.3683V14.6877C43.9085 14.446 43.8128 14.2142 43.6424 14.0433C43.472 13.8724 43.2409 13.7764 43 13.7764C42.7591 13.7764 42.528 13.8724 42.3576 14.0433C42.1872 14.2142 42.0915 14.446 42.0915 14.6877V20.3683C42.0915 20.6101 42.1872 20.8419 42.3576 21.0127C42.528 21.1836 42.7591 21.2796 43 21.2796ZM69.0915 39.9278H63.4953C63.2543 39.9278 63.0233 40.0238 62.8529 40.1947C62.6825 40.3656 62.5868 40.5973 62.5868 40.8391C62.5868 41.0807 62.6825 41.3125 62.8529 41.4835C63.0233 41.6544 63.2543 41.7504 63.4953 41.7504H69.0915C69.3325 41.7504 69.5635 41.6544 69.7339 41.4835C69.9043 41.3125 70 41.0807 70 40.8391C70 40.5973 69.9043 40.3656 69.7339 40.1947C69.5635 40.0238 69.3325 39.9278 69.0915 39.9278ZM22.5047 41.7504C22.7457 41.7504 22.9767 41.6544 23.1471 41.4835C23.3175 41.3125 23.4132 41.0807 23.4132 40.8391C23.4132 40.5973 23.3175 40.3656 23.1471 40.1947C22.9767 40.0238 22.7457 39.9278 22.5047 39.9278H16.9085C16.6675 39.9278 16.4365 40.0238 16.2661 40.1947C16.0957 40.3656 16 40.5973 16 40.8391C16 41.0807 16.0957 41.3125 16.2661 41.4835C16.4365 41.6544 16.6675 41.7504 16.9085 41.7504H22.5047ZM57.2926 27.1631C57.412 27.1632 57.5301 27.1397 57.6404 27.094C57.7506 27.0481 57.8508 26.981 57.9351 26.8963L61.8459 22.9743C62.0146 22.803 62.1089 22.5718 62.1082 22.331C62.1075 22.0904 62.0119 21.8597 61.8422 21.6895C61.6726 21.5192 61.4426 21.4233 61.2026 21.4224C60.9626 21.4216 60.7321 21.5162 60.5614 21.6854L56.6504 25.6073C56.5233 25.7347 56.4367 25.8971 56.4016 26.0738C56.3665 26.2507 56.3845 26.4339 56.4533 26.6005C56.522 26.767 56.6385 26.9093 56.7879 27.0095C56.9373 27.1096 57.1129 27.1631 57.2926 27.1631ZM28.0649 26.8966C28.1493 26.9811 28.2495 27.0483 28.3598 27.0941C28.47 27.1399 28.5882 27.1635 28.7076 27.1635C28.8269 27.1635 28.9451 27.1399 29.0553 27.0941C29.1656 27.0482 29.2658 26.9811 29.3502 26.8965C29.4345 26.8118 29.5015 26.7113 29.5471 26.6008C29.5928 26.4901 29.6163 26.3715 29.6163 26.2519C29.6163 26.1321 29.5928 26.0136 29.5471 25.903C29.5014 25.7925 29.4345 25.692 29.3501 25.6073L25.4391 21.6854C25.3547 21.6007 25.2546 21.5336 25.1443 21.4877C25.0341 21.442 24.9159 21.4184 24.7966 21.4184C24.6773 21.4184 24.5591 21.442 24.4489 21.4877C24.3387 21.5336 24.2385 21.6007 24.1541 21.6854C24.0697 21.7699 24.0028 21.8704 23.9571 21.981C23.9115 22.0916 23.888 22.2101 23.888 22.3297C23.8879 22.4495 23.9114 22.568 23.9571 22.6786C24.0028 22.7891 24.0697 22.8897 24.1541 22.9743L28.0649 26.8966Z" fill="#637A75"/>
</svg>
