<svg width="70" height="70" viewBox="0 0 70 70" fill="none" xmlns="http://www.w3.org/2000/svg">
<ellipse cx="31.5556" cy="31.516" rx="31.5556" ry="31.516" fill="#F7FCFA"/>
<path d="M46.4986 61.8227C46.3076 61.8227 46.1241 61.7494 45.9919 61.6173L40.0808 55.7063C40.0661 55.6916 40.0514 55.677 40.0367 55.6623C38.1789 53.7555 38.1936 50.69 40.0808 48.7978C41.8284 47.0524 44.582 46.9057 46.4986 48.3578C48.4151 46.9057 51.1687 47.0524 52.9164 48.7978C54.8109 50.69 54.8255 53.7555 52.9604 55.6623C52.9457 55.677 52.9311 55.6916 52.9164 55.7063L47.0052 61.6173C46.8657 61.7494 46.6895 61.8227 46.4986 61.8227ZM41.1308 54.7456L46.4986 60.1066L51.8663 54.7382C51.881 54.7236 51.8957 54.7089 51.903 54.6942C53.2541 53.3448 53.2541 51.1447 51.903 49.7952C50.5519 48.4458 48.349 48.4458 46.9979 49.7952C46.7335 50.0593 46.2562 50.0593 45.9919 49.7952C44.6408 48.4458 42.4379 48.4458 41.0868 49.7952C39.7356 51.1447 39.7356 53.3448 41.0868 54.6942C41.1014 54.7162 41.1161 54.7309 41.1308 54.7456Z" fill="#637A75"/>
<path d="M63.6958 70.0001H29.3011C28.9046 70.0001 28.5889 69.6848 28.5889 69.2887V45.9892C28.5889 45.5932 28.9046 45.2778 29.3011 45.2778C29.6977 45.2778 30.0134 45.5932 30.0134 45.9892V68.5774H62.9909V46.1139C62.9909 45.7179 63.3067 45.4025 63.7032 45.4025C64.0997 45.4025 64.4155 45.7179 64.4155 46.1139V69.2814C64.4081 69.6774 64.0924 70.0001 63.6958 70.0001Z" fill="#637A75"/>
<path d="M69.2841 52.4062C69.1005 52.4062 68.9169 52.3402 68.7774 52.2008L46.2563 29.6933L24.2199 52.1935C23.9482 52.4722 23.493 52.4795 23.2139 52.2081C22.9349 51.9368 22.9276 51.4821 23.1993 51.2034L45.7423 28.1826C45.8745 28.0432 46.0581 27.9699 46.249 27.9699C46.4252 27.9405 46.6235 28.0432 46.7557 28.1752L69.7907 51.1887C70.0698 51.4674 70.0698 51.9148 69.7907 52.1935C69.6512 52.3402 69.4676 52.4062 69.2841 52.4062Z" fill="#637A75"/>
</svg>
