<svg width="137" height="64" viewBox="0 0 137 64" fill="none" xmlns="http://www.w3.org/2000/svg">
<path d="M3.10965 0.954678C1.4069 1.49375 0.74585 2.70667 0.74585 5.2909C0.74585 6.78549 0.966198 7.93645 1.60297 9.84749C2.84012 13.5955 5.31441 17.5887 8.15595 20.4425C11.7448 24.0678 15.9582 26.0159 20.2821 26.0644C21.1763 26.0644 21.9114 26.1257 21.96 26.1992C22.0092 26.2605 22.0577 26.5179 22.0577 26.7504V27.179L21.0409 27.1911C17.0727 27.2652 14.06 30.1439 12.333 35.5333C11.267 38.8527 10.7899 41.6944 10.7899 44.6957C10.7899 51.3594 12.8478 57.1404 16.0323 59.4314C16.473 59.7502 17.3429 60.5217 17.9433 61.1585C19.0086 62.2488 20.4054 63.3755 20.6992 63.3755C20.7848 63.3755 20.834 62.9712 20.834 62.1504V60.9254H21.2625C22.5974 60.9254 25.2307 60.0433 26.9584 59.0144C31.8942 56.0744 35.4096 50.9915 36.5732 45.1243C36.6837 44.5488 36.8428 43.7772 36.9284 43.4093C37.21 42.1479 36.8671 38.755 36.328 37.3952C36.2667 37.224 36.4136 37.187 37.3327 37.1256C39.5374 36.966 41.4235 36.1823 42.5259 34.9943C44.424 32.9121 44.9388 29.8009 44.0204 25.9546C43.9712 25.7221 44.0325 25.7093 46.4576 25.7093C49.2257 25.7093 50.2547 25.5624 51.9695 24.9007C53.8313 24.1783 55.0685 23.0631 55.6439 21.5813C56.0361 20.5894 56.0846 18.8495 55.7666 17.6002C54.8845 14.1339 52.2755 10.7775 48.8463 8.70738L48.1233 8.2788L48.6503 8.19322C48.9319 8.14404 49.8874 8.14404 50.7816 8.19322C52.7168 8.29094 53.0719 8.18108 53.3044 7.40952C53.4762 6.84617 53.3044 6.39268 52.7654 6.00115C52.4345 5.75588 52.2634 5.74376 49.8868 5.74376C47.0452 5.74376 46.4206 5.85424 44.9018 6.58876C44.2037 6.93175 43.8486 7.01735 42.9666 7.07866C42.379 7.11571 41.8278 7.16425 41.7537 7.18916C41.6189 7.21343 41.0799 5.5598 41.0556 5.05777C41.0435 4.93514 41.313 4.71478 41.7537 4.49443C43.003 3.83272 44.1296 3.55105 46.2731 3.3556C47.645 3.23297 48.0365 3.06179 48.2696 2.49845C48.4657 2.00856 48.3188 1.45734 47.8775 1.09008C47.4368 0.722824 46.7629 0.68578 44.9011 0.967449C42.3291 1.35962 40.369 2.13119 39.1568 3.23361C38.2383 4.07863 38.2141 4.26257 38.7652 6.3205C39.0099 7.23898 39.2059 8.03545 39.2059 8.09677C39.2059 8.15808 38.8751 8.43976 38.4708 8.72143C36.7808 9.92157 35.3476 12.2982 34.8699 14.7477C34.7108 15.5193 34.6987 15.5314 34.5639 15.1884C34.2088 14.3185 32.9959 12.0159 32.3841 11.0725C31.3673 9.51663 30.7062 8.69588 29.3465 7.28752C27.2394 5.10695 25.3291 3.69859 22.8548 2.49845C18.7518 0.513966 15.0034 0.244434 13.1665 1.81247L12.6887 2.21677L11.709 1.9351C8.47466 0.991085 4.46942 0.538235 3.10965 0.954678ZM7.29882 3.53891C12.6638 4.33538 18.5187 6.95603 22.2908 10.239C24.0913 11.8071 25.9288 14.2323 26.7859 16.1554C26.9571 16.5476 27.0797 16.8657 27.0555 16.8778C26.639 17.1231 25.7941 17.6985 25.3898 18.0294C24.2503 18.96 22.9276 21.0058 22.4748 22.5247C22.1439 23.6514 22.2544 23.6028 20.2208 23.5294C18.2977 23.4559 17.2809 23.2477 15.6031 22.586C10.7037 20.6385 5.98823 15.0894 3.93037 8.89197C3.67297 8.09549 3.39131 7.03011 3.31786 6.51531C3.13392 5.40076 3.24441 3.80844 3.52607 3.53891C3.75856 3.29428 5.65739 3.29428 7.29882 3.53891ZM18.4446 3.53891C23.0011 4.50656 27.9126 8.40144 30.8276 13.3623C31.1948 13.987 31.6362 14.7956 31.7952 15.175L32.1011 15.8488H31.207C30.7292 15.8488 30.1289 15.8852 29.8964 15.9223L29.4678 15.9957L28.9658 14.9055C26.9201 10.5814 23.0375 6.89471 17.7216 4.2613L15.8969 3.35497H16.7425C17.2075 3.35561 17.9669 3.44118 18.4446 3.53891ZM44.8034 9.72485C45.0851 9.78617 45.6363 9.97012 46.0284 10.117L46.7387 10.3866L46.0898 10.4849C45.2199 10.6197 44.5952 10.9505 44.0198 11.6116C43.4072 12.3097 43.199 13.02 43.2725 14.1224C43.4807 17.0745 46.7878 19.2915 49.8255 18.5199C51.0013 18.2261 51.7728 16.9276 51.6751 15.4088C51.663 15.0415 51.6751 14.7477 51.7115 14.7477C51.8584 14.7477 52.8382 16.6217 53.1326 17.4667C53.7451 19.2551 53.4877 21.0435 52.508 21.7908C50.1193 23.6156 44.2771 23.7995 40.8595 22.1708C38.4829 21.0441 37.2464 19.121 37.2464 16.561C37.2464 14.8339 37.7484 13.3393 38.7895 11.9067C39.5368 10.902 40.8474 10.0078 41.9862 9.73891C42.6236 9.59008 44.1788 9.57795 44.8034 9.72485ZM33.4737 18.5927C34.7964 18.9479 35.0295 19.1197 35.4211 20.0752C36.1926 21.937 37.6629 23.4067 39.7814 24.4357L41.0185 25.0361L41.3372 25.9303C41.9983 27.8292 42.1701 29.311 41.8642 30.7564C41.2766 33.5003 39.7699 34.59 36.5241 34.6027C34.2337 34.6149 31.7965 34.0145 29.4442 32.8514C28.6113 32.4471 28.2562 32.1775 27.3991 31.2833C26.2839 30.1068 25.0711 28.3919 24.7773 27.5711C24.4956 26.7625 24.4464 24.8764 24.6795 23.933C25.2307 21.7161 26.6026 19.9398 28.4395 19.0456C29.0028 18.7761 29.7501 18.5065 30.081 18.4331C30.8646 18.2747 32.5795 18.3603 33.4737 18.5927ZM22.9397 29.8743C23.0624 29.9235 23.4667 30.4013 23.846 30.9397C24.8379 32.3608 26.8345 34.3326 27.8142 34.8716C28.8674 35.435 30.5331 36.0845 32.0398 36.5131L33.2648 36.8561L33.657 37.6519C34.1469 38.6317 34.4285 39.6977 34.4285 40.5549C34.4285 41.1674 34.4164 41.2038 34.159 41.1553C28.0231 39.8325 23.8831 37.8359 20.6615 34.6391C19.2411 33.2301 17.7957 31.2335 17.9305 30.8784C18.0039 30.6702 19.3267 29.9721 19.927 29.8252C20.4412 29.6904 22.5968 29.7268 22.9397 29.8743ZM16.3012 33.218C16.3012 33.4633 17.82 35.3373 18.8247 36.3534C22.181 39.6977 27.1411 42.2328 32.531 43.3474C33.413 43.5313 34.1724 43.7146 34.221 43.7638C34.4049 43.9356 33.1799 48.2469 32.849 48.5778C32.7513 48.6876 31.2204 48.4309 29.8363 48.0757C25.6842 47.0104 20.834 44.6586 17.8328 42.2456C16.6812 41.3271 15.7385 40.3716 14.9299 39.3184C14.2561 38.4242 14.2076 38.3015 14.2682 37.8851C14.4643 36.66 15.8726 33.1203 16.1664 33.1203C16.2399 33.1203 16.3012 33.1688 16.3012 33.218ZM14.1826 42.319C17.4042 45.7611 24.0428 49.3008 29.775 50.6364C30.4118 50.7833 31.0977 50.9423 31.2817 50.9915L31.6368 51.0649L31.0486 51.8608C30.7299 52.3015 30.2278 52.951 29.9219 53.3183L29.3707 53.9672L28.4395 53.8817C25.9901 53.6734 23.4175 53.1344 21.274 52.3871C18.1259 51.2968 14.7824 49.1903 13.6921 47.598C13.3491 47.1202 13.3491 47.1081 13.3491 44.9888C13.337 43.1149 13.4226 41.6937 13.5574 41.6937C13.5823 41.6944 13.8639 41.976 14.1826 42.319ZM15.2972 52.2651C17.8813 53.98 21.6541 55.3884 25.3042 56.0009L26.6518 56.2334L25.9295 56.699C25.011 57.2866 23.97 57.7523 22.7941 58.1202C21.7281 58.451 19.8913 58.5123 19.0341 58.2549C17.7849 57.8749 16.4372 56.6262 15.5066 54.9847C14.8207 53.7718 14.0121 51.5063 14.2938 51.6283C14.3538 51.6525 14.8066 51.947 15.2972 52.2651Z" fill="#ffffff"/>
<path d="M55.1188 32.2055C55.1188 32.7918 54.943 33.3502 54.5914 33.8807C54.2398 34.3973 53.7897 34.8091 53.2412 35.1162C54.1695 35.2977 54.8797 35.7165 55.3719 36.3727C55.8783 37.0288 56.1314 37.8385 56.1314 38.8018C56.1314 39.7371 55.8712 40.5259 55.3508 41.168C54.8305 41.7962 54.1343 42.2709 53.2623 42.592C52.4044 42.8991 51.4691 43.0527 50.4565 43.0527C49.2751 43.0527 47.9812 42.948 46.5747 42.7386V29.1063C48.2343 28.9946 49.5564 28.9388 50.5409 28.9388C51.9754 28.9388 53.0935 29.1831 53.8952 29.6717C54.7109 30.1603 55.1188 31.0049 55.1188 32.2055ZM49.043 34.6974C49.3665 34.7393 49.7251 34.7602 50.1189 34.7602C50.9487 34.7602 51.5676 34.5718 51.9754 34.1948C52.3833 33.8179 52.5872 33.2246 52.5872 32.4149C52.5872 31.0747 51.8559 30.4046 50.3932 30.4046C49.9572 30.4046 49.5071 30.4395 49.043 30.5093V34.6974ZM49.043 41.4612C49.5493 41.545 50.0205 41.5868 50.4565 41.5868C51.441 41.5868 52.1934 41.3635 52.7138 40.9167C53.2482 40.47 53.5155 39.786 53.5155 38.8646C53.5155 37.8176 53.2271 37.1126 52.6505 36.7496C52.0879 36.3727 51.2019 36.1842 49.9924 36.1842C49.6126 36.1842 49.2962 36.2051 49.043 36.247V41.4612Z" fill="#ffffff"/>
<path d="M59.2756 27.7661C59.7397 27.7661 60.1124 27.8778 60.3937 28.1012C60.6891 28.3245 60.8367 28.6456 60.8367 29.0644C60.8367 29.4972 60.682 29.8322 60.3726 30.0696C60.0773 30.2929 59.6905 30.4046 59.2123 30.4046C58.7482 30.4046 58.3755 30.2929 58.0942 30.0696C57.8129 29.8462 57.6723 29.5251 57.6723 29.1063C57.6723 28.6735 57.82 28.3455 58.1153 28.1221C58.4247 27.8848 58.8115 27.7661 59.2756 27.7661ZM60.3726 41.1262C60.3726 41.8102 60.5906 42.2709 61.0266 42.5082C60.9141 42.7176 60.7313 42.8782 60.4781 42.9899C60.2249 43.1015 59.9507 43.1574 59.6553 43.1574C59.1209 43.1574 58.7201 43.0038 58.4528 42.6967C58.1856 42.3896 58.052 41.9568 58.052 41.3984V32.1636H60.3726V41.1262Z" fill="#ffffff"/>
<path d="M67.1475 31.7448C68.7227 31.7448 69.8901 32.2544 70.6495 33.2735C71.409 34.2786 71.7887 35.6397 71.7887 37.3569C71.7887 39.1857 71.4231 40.6375 70.6917 41.7125C69.9604 42.7735 68.779 43.304 67.1475 43.304C65.5442 43.304 64.3698 42.7944 63.6244 41.7753C62.8931 40.7562 62.5274 39.3532 62.5274 37.5663C62.5274 35.8352 62.9072 34.4322 63.6666 33.3572C64.4261 32.2823 65.5864 31.7448 67.1475 31.7448ZM67.1475 42.0475C68.0195 42.0475 68.5891 41.6217 68.8563 40.7702C69.1236 39.9186 69.2572 38.8157 69.2572 37.4616C69.2572 36.2191 69.1095 35.1651 68.8141 34.2995C68.5329 33.434 67.9773 33.0012 67.1475 33.0012C65.7552 33.0012 65.059 34.488 65.059 37.4616C65.059 38.8157 65.1856 39.9186 65.4387 40.7702C65.7059 41.6217 66.2755 42.0475 67.1475 42.0475Z" fill="#ffffff"/>
<path d="M76.2175 27.9336V41.1262C76.2175 41.8102 76.4355 42.2709 76.8715 42.5082C76.759 42.7176 76.5691 42.8782 76.3019 42.9899C76.0487 43.1015 75.7815 43.1574 75.5002 43.1574C74.9658 43.1574 74.5649 43.0038 74.2977 42.6967C74.0305 42.3896 73.8969 41.9568 73.8969 41.3984V28.1849L76.2175 27.9336Z" fill="#ffffff"/>
<path d="M83.0728 31.7448C84.648 31.7448 85.8154 32.2544 86.5748 33.2735C87.3343 34.2786 87.714 35.6397 87.714 37.3569C87.714 39.1857 87.3484 40.6375 86.617 41.7125C85.8857 42.7735 84.7043 43.304 83.0728 43.304C81.4695 43.304 80.2951 42.7944 79.5497 41.7753C78.8184 40.7562 78.4527 39.3532 78.4527 37.5663C78.4527 35.8352 78.8325 34.4322 79.5919 33.3572C80.3514 32.2823 81.5117 31.7448 83.0728 31.7448ZM83.0728 42.0475C83.9448 42.0475 84.5144 41.6217 84.7817 40.7702C85.0489 39.9186 85.1825 38.8157 85.1825 37.4616C85.1825 36.2191 85.0348 35.1651 84.7395 34.2995C84.4582 33.434 83.9026 33.0012 83.0728 33.0012C81.6805 33.0012 80.9843 34.488 80.9843 37.4616C80.9843 38.8157 81.1109 39.9186 81.364 40.7702C81.6313 41.6217 82.2008 42.0475 83.0728 42.0475Z" fill="#ffffff"/>
<path d="M93.5985 45.7959C94.2454 45.7959 94.7236 45.5725 95.033 45.1258C95.3424 44.693 95.5323 44.1695 95.6026 43.5553C95.6729 42.941 95.7081 42.1662 95.7081 41.2309V40.6655C95.4409 41.0564 95.0752 41.3495 94.6111 41.545C94.147 41.7404 93.6547 41.8381 93.1343 41.8381C91.756 41.8381 90.7434 41.3774 90.0965 40.4561C89.4636 39.5347 89.1471 38.2992 89.1471 36.7496C89.1471 35.1721 89.5339 33.9436 90.3074 33.0641C91.081 32.1846 92.2272 31.7448 93.7461 31.7448C94.4493 31.7448 95.1596 31.8774 95.8769 32.1427L97.9443 31.9123V40.7283C97.9443 42.0824 97.8177 43.2132 97.5646 44.1206C97.3255 45.0281 96.8684 45.74 96.1933 46.2566C95.5323 46.7731 94.6041 47.0314 93.4086 47.0314C92.41 47.0314 91.5521 46.8359 90.8348 46.445C90.1316 46.0542 89.78 45.4539 89.78 44.6442C89.78 44.1695 89.9277 43.8065 90.223 43.5553C90.5184 43.304 90.9192 43.1783 91.4255 43.1783C91.7912 43.1783 92.0725 43.2551 92.2694 43.4087C92.1709 43.7018 92.1217 44.0159 92.1217 44.351C92.1217 45.3143 92.614 45.7959 93.5985 45.7959ZM95.6237 33.6713C94.9627 33.2246 94.3087 33.0012 93.6618 33.0012C92.8882 33.0012 92.3538 33.3433 92.0584 34.0273C91.7771 34.7114 91.6365 35.5839 91.6365 36.6449C91.6365 37.7757 91.7771 38.6901 92.0584 39.3881C92.3538 40.0861 92.9163 40.4351 93.7461 40.4351C94.379 40.4351 94.8502 40.2048 95.1596 39.7441C95.469 39.2834 95.6237 38.6971 95.6237 37.9851V33.6713Z" fill="#ffffff"/>
<path d="M101.901 27.7661C102.365 27.7661 102.738 27.8778 103.019 28.1012C103.314 28.3245 103.462 28.6456 103.462 29.0644C103.462 29.4972 103.307 29.8322 102.998 30.0696C102.703 30.2929 102.316 30.4046 101.838 30.4046C101.374 30.4046 101.001 30.2929 100.72 30.0696C100.438 29.8462 100.298 29.5251 100.298 29.1063C100.298 28.6735 100.445 28.3455 100.741 28.1221C101.05 27.8848 101.437 27.7661 101.901 27.7661ZM102.998 41.1262C102.998 41.8102 103.216 42.2709 103.652 42.5082C103.54 42.7176 103.357 42.8782 103.104 42.9899C102.85 43.1015 102.576 43.1574 102.281 43.1574C101.746 43.1574 101.346 43.0038 101.078 42.6967C100.811 42.3896 100.677 41.9568 100.677 41.3984V32.1636H102.998V41.1262Z" fill="#ffffff"/>
<path d="M109.71 32.9803C108.303 32.9803 107.6 34.502 107.6 37.5453C107.6 38.7878 107.755 39.7929 108.064 40.5608C108.388 41.3146 109.006 41.6915 109.921 41.6915C110.539 41.6915 111.067 41.531 111.503 41.2099C111.953 40.8749 112.255 40.4072 112.41 39.8069C112.649 39.9186 112.818 40.0512 112.916 40.2048C113.029 40.3444 113.085 40.5398 113.085 40.7911C113.085 41.2937 112.916 41.7404 112.579 42.1313C112.255 42.5082 111.833 42.7944 111.313 42.9899C110.793 43.1993 110.258 43.304 109.71 43.304C108.163 43.304 107.016 42.8084 106.271 41.8172C105.526 40.812 105.153 39.4649 105.153 37.7757C105.153 35.9748 105.554 34.5229 106.355 33.42C107.171 32.3032 108.395 31.7448 110.026 31.7448C110.982 31.7448 111.77 31.9403 112.389 32.3311C113.008 32.722 113.317 33.3223 113.317 34.132C113.317 34.6067 113.169 34.9696 112.874 35.2209C112.579 35.4722 112.178 35.5979 111.672 35.5979C111.517 35.5979 111.355 35.5769 111.186 35.535C111.032 35.4932 110.905 35.4373 110.807 35.3675C110.919 35.0325 110.975 34.7184 110.975 34.4252C110.975 33.4619 110.554 32.9803 109.71 32.9803Z" fill="#ffffff"/>
<path d="M121.002 41.88C120.735 42.3686 120.341 42.7246 119.821 42.948C119.315 43.1853 118.738 43.304 118.091 43.304C117.121 43.304 116.305 43.0108 115.644 42.4245C114.997 41.8381 114.673 41.0773 114.673 40.1419C114.673 37.8804 116.706 36.7496 120.77 36.7496V34.9278C120.77 34.2297 120.665 33.7132 120.454 33.3782C120.243 33.0292 119.842 32.8547 119.251 32.8547C118.759 32.8547 118.351 32.9873 118.028 33.2525C117.704 33.5038 117.543 33.8598 117.543 34.3205C117.543 34.6137 117.599 34.9278 117.711 35.2628C117.514 35.4164 117.233 35.4932 116.867 35.4932C116.361 35.4932 115.96 35.3675 115.665 35.1162C115.37 34.8649 115.222 34.502 115.222 34.0273C115.222 33.3572 115.602 32.8128 116.361 32.394C117.121 31.9612 118.133 31.7448 119.399 31.7448C120.327 31.7448 121.059 31.8844 121.593 32.1636C122.127 32.4289 122.507 32.8477 122.732 33.42C122.971 33.9785 123.091 34.7323 123.091 35.6816V41.1262C123.091 41.8102 123.309 42.2709 123.745 42.5082C123.632 42.7176 123.464 42.8782 123.239 42.9899C123.028 43.1015 122.781 43.1574 122.5 43.1574C122.092 43.1574 121.755 43.0457 121.488 42.8223C121.22 42.585 121.059 42.2709 121.002 41.88ZM118.914 41.901C119.533 41.901 119.997 41.6706 120.306 41.2099C120.616 40.7353 120.77 40.1489 120.77 39.4509V37.7966C118.393 37.7966 117.205 38.5505 117.205 40.0582C117.205 40.6166 117.353 41.0633 117.648 41.3984C117.957 41.7334 118.379 41.901 118.914 41.901Z" fill="#ffffff"/>
<path d="M45.9222 58.4546C45.9222 59.0019 46.0966 59.3704 46.4454 59.5603C46.3553 59.7278 46.2203 59.8563 46.0403 59.9456C45.8715 60.035 45.6746 60.0796 45.4496 60.0796C45.1233 60.0796 44.8533 59.9903 44.6395 59.8116C44.4257 59.6217 44.2963 59.3704 44.2513 59.0577C44.0713 59.4263 43.7788 59.7055 43.3737 59.8954C42.9799 60.0964 42.5524 60.1969 42.0911 60.1969C40.9434 60.1969 40.1108 59.7613 39.5932 58.8902C39.0757 58.0191 38.8169 56.9023 38.8169 55.5397C38.8169 54.1325 39.1207 53.0157 39.7283 52.1893C40.3471 51.3628 41.3035 50.9496 42.5974 50.9496C43.1374 50.9496 43.6269 51.0222 44.0657 51.1674V48.1017L45.9222 47.9006V58.4546ZM44.0657 52.474C43.5481 52.1278 43.0305 51.9547 42.513 51.9547C41.8266 51.9547 41.3766 52.2786 41.1628 52.9264C40.949 53.5741 40.8421 54.4173 40.8421 55.456C40.8421 56.4499 40.9659 57.3043 41.2134 58.0191C41.461 58.7227 41.9167 59.0745 42.5805 59.0745C43.0756 59.0745 43.4469 58.8902 43.6944 58.5217C43.9419 58.1419 44.0657 57.6729 44.0657 57.1145V52.474Z" fill="#ffffff"/>
<path d="M49.2359 47.7666C49.6072 47.7666 49.9053 47.856 50.1304 48.0347C50.3666 48.2133 50.4848 48.4702 50.4848 48.8053C50.4848 49.1515 50.361 49.4195 50.1135 49.6094C49.8772 49.7881 49.5678 49.8774 49.1852 49.8774C48.814 49.8774 48.5158 49.7881 48.2908 49.6094C48.0657 49.4307 47.9532 49.1738 47.9532 48.8388C47.9532 48.4926 48.0714 48.2301 48.3076 48.0514C48.5552 47.8615 48.8646 47.7666 49.2359 47.7666ZM50.1135 58.4546C50.1135 59.0019 50.2879 59.3704 50.6367 59.5603C50.5467 59.7278 50.4004 59.8563 50.1979 59.9456C49.9954 60.035 49.7759 60.0796 49.5397 60.0796C49.1121 60.0796 48.7915 59.9568 48.5777 59.7111C48.3639 59.4654 48.257 59.1192 48.257 58.6724V51.2846H50.1135V58.4546Z" fill="#ffffff"/>
<path d="M55.1452 51.8375C54.8077 51.8375 54.5377 51.9268 54.3351 52.1055C54.1326 52.273 54.0314 52.5187 54.0314 52.8426C54.0314 53.2782 54.1776 53.6355 54.4702 53.9147C54.7739 54.1828 55.2353 54.4843 55.8541 54.8194C56.3491 55.0874 56.7429 55.3275 57.0355 55.5397C57.3393 55.7519 57.5981 56.0255 57.8118 56.3606C58.0256 56.6845 58.1325 57.0809 58.1325 57.55C58.1325 58.3988 57.8231 59.0521 57.2043 59.51C56.5967 59.9679 55.8203 60.1969 54.8752 60.1969C54.0539 60.1969 53.3619 60.0573 52.7993 59.7781C52.248 59.4989 51.9723 59.0354 51.9723 58.3876C51.9723 58.0079 52.0905 57.7175 52.3268 57.5165C52.563 57.3155 52.8837 57.215 53.2888 57.215C53.5813 57.215 53.8063 57.2764 53.9638 57.3992C53.8738 57.6673 53.8288 57.9186 53.8288 58.1531C53.8288 58.5105 53.9413 58.7953 54.1664 59.0075C54.3914 59.2085 54.6952 59.309 55.0777 59.309C55.494 59.309 55.8091 59.2029 56.0229 58.9907C56.2479 58.7674 56.3604 58.4435 56.3604 58.0191C56.3604 57.5835 56.2085 57.2317 55.9047 56.9637C55.6122 56.6845 55.1565 56.3773 54.5377 56.0423C54.0426 55.7631 53.6432 55.5174 53.3394 55.3052C53.0469 55.093 52.7937 54.825 52.5799 54.5011C52.3661 54.166 52.2593 53.764 52.2593 53.2949C52.2593 52.5466 52.563 51.9715 53.1706 51.5694C53.7782 51.1562 54.5152 50.9496 55.3815 50.9496C56.1804 50.9496 56.833 51.0948 57.3393 51.3851C57.8568 51.6643 58.1156 52.1278 58.1156 52.7756C58.1156 53.1553 57.9919 53.4457 57.7443 53.6467C57.508 53.8477 57.1874 53.9483 56.7823 53.9483C56.4898 53.9483 56.2648 53.8868 56.1072 53.764C56.1973 53.4959 56.2423 53.2446 56.2423 53.0101C56.2423 52.6416 56.1466 52.3568 55.9553 52.1557C55.7753 51.9435 55.5053 51.8375 55.1452 51.8375Z" fill="#ffffff"/>
<path d="M60.8554 47.7666C61.2267 47.7666 61.5248 47.856 61.7499 48.0347C61.9862 48.2133 62.1043 48.4702 62.1043 48.8053C62.1043 49.1515 61.9805 49.4195 61.733 49.6094C61.4967 49.7881 61.1873 49.8774 60.8048 49.8774C60.4335 49.8774 60.1353 49.7881 59.9103 49.6094C59.6852 49.4307 59.5727 49.1738 59.5727 48.8388C59.5727 48.4926 59.6909 48.2301 59.9271 48.0514C60.1747 47.8615 60.4841 47.7666 60.8554 47.7666ZM61.733 58.4546C61.733 59.0019 61.9074 59.3704 62.2562 59.5603C62.1662 59.7278 62.0199 59.8563 61.8174 59.9456C61.6149 60.035 61.3954 60.0796 61.1592 60.0796C60.7316 60.0796 60.411 59.9568 60.1972 59.7111C59.9834 59.4654 59.8765 59.1192 59.8765 58.6724V51.2846H61.733V58.4546Z" fill="#ffffff"/>
<path d="M64.0307 51.2846L65.5833 51.0836L65.6677 52.5913C65.8815 52.0552 66.2078 51.6476 66.6466 51.3684C67.0967 51.0892 67.6199 50.9496 68.2162 50.9496C69.1613 50.9496 69.8195 51.212 70.1908 51.7369C70.5621 52.2507 70.7478 53.038 70.7478 54.099V58.4546C70.7478 59.0019 70.9221 59.3704 71.2709 59.5603C71.1809 59.7278 71.0347 59.8563 70.8321 59.9456C70.6296 60.035 70.4158 60.0796 70.1908 60.0796C69.752 60.0796 69.4257 59.9568 69.2119 59.7111C68.9982 59.4654 68.8913 59.1192 68.8913 58.6724V54.3336C68.8913 53.63 68.8125 53.105 68.655 52.7588C68.4975 52.4126 68.1487 52.2395 67.6086 52.2395C66.9223 52.2395 66.461 52.541 66.2247 53.1441C65.9997 53.7472 65.8871 54.5234 65.8871 55.4727V59.8283H64.0307V51.2846Z" fill="#ffffff"/>
<path d="M73.1159 60.0294V52.0385H71.9177V51.2846H73.1159L73.1666 50.38C73.2678 48.6377 74.2692 47.7666 76.1707 47.7666C76.8796 47.7666 77.4871 47.8783 77.9934 48.1017C78.511 48.3139 78.7698 48.6768 78.7698 49.1906C78.7698 49.5703 78.6516 49.8607 78.4154 50.0617C78.1791 50.2627 77.8584 50.3632 77.4534 50.3632C77.1608 50.3632 76.9358 50.3018 76.7783 50.179C76.8683 49.9109 76.9133 49.6596 76.9133 49.4251C76.9133 49.1347 76.8402 48.9114 76.6939 48.755C76.5589 48.5875 76.3507 48.5037 76.0695 48.5037C75.6306 48.5037 75.3325 48.6712 75.175 49.0063C75.0287 49.3302 74.9556 49.7881 74.9556 50.38V51.2846H76.7952V52.0385H74.9724V59.8283L73.1159 60.0294Z" fill="#ffffff"/>
<path d="M83.6722 57.4663C83.931 57.5891 84.0604 57.8292 84.0604 58.1866C84.0604 58.5887 83.9254 58.9461 83.6553 59.2588C83.3853 59.5603 83.0365 59.7893 82.6089 59.9456C82.1814 60.1131 81.7482 60.1969 81.3094 60.1969C80.0717 60.1969 79.1548 59.8004 78.5584 59.0075C77.9621 58.2034 77.6639 57.1256 77.6639 55.7743C77.6639 54.3336 77.9846 53.1721 78.6259 52.2898C79.2785 51.3963 80.263 50.9496 81.5794 50.9496C82.412 50.9496 83.0815 51.1674 83.5878 51.6029C84.0941 52.0273 84.3473 52.6304 84.3473 53.4122C84.3473 54.3838 84.0041 55.0651 83.3178 55.456C82.6427 55.8469 81.7201 56.0423 80.5499 56.0423C80.2236 56.0423 79.9142 56.0311 79.6217 56.0088C79.6554 56.8911 79.8017 57.5947 80.0605 58.1196C80.3305 58.6445 80.8031 58.907 81.4782 58.907C81.9732 58.907 82.4064 58.7841 82.7777 58.5384C83.1603 58.2815 83.4584 57.9242 83.6722 57.4663ZM81.3094 51.9045C80.7018 51.9045 80.2743 52.2228 80.0267 52.8593C79.7792 53.4848 79.6442 54.2554 79.6217 55.1712C79.9592 55.1935 80.2068 55.2047 80.3643 55.2047C81.782 55.2047 82.4908 54.6407 82.4908 53.5127C82.4908 53.0548 82.3895 52.6751 82.187 52.3735C81.9957 52.0608 81.7032 51.9045 81.3094 51.9045Z" fill="#ffffff"/>
<path d="M88.7017 51.8375C88.3642 51.8375 88.0941 51.9268 87.8916 52.1055C87.6891 52.273 87.5878 52.5187 87.5878 52.8426C87.5878 53.2782 87.7341 53.6355 88.0266 53.9147C88.3304 54.1828 88.7917 54.4843 89.4106 54.8194C89.9056 55.0874 90.2994 55.3275 90.5919 55.5397C90.8957 55.7519 91.1545 56.0255 91.3683 56.3606C91.5821 56.6845 91.689 57.0809 91.689 57.55C91.689 58.3988 91.3795 59.0521 90.7607 59.51C90.1531 59.9679 89.3768 60.1969 88.4317 60.1969C87.6103 60.1969 86.9184 60.0573 86.3558 59.7781C85.8045 59.4989 85.5288 59.0354 85.5288 58.3876C85.5288 58.0079 85.6469 57.7175 85.8832 57.5165C86.1195 57.3155 86.4402 57.215 86.8452 57.215C87.1378 57.215 87.3628 57.2764 87.5203 57.3992C87.4303 57.6673 87.3853 57.9186 87.3853 58.1531C87.3853 58.5105 87.4978 58.7953 87.7228 59.0075C87.9479 59.2085 88.2517 59.309 88.6342 59.309C89.0505 59.309 89.3656 59.2029 89.5793 58.9907C89.8044 58.7674 89.9169 58.4435 89.9169 58.0191C89.9169 57.5835 89.765 57.2317 89.4612 56.9637C89.1687 56.6845 88.713 56.3773 88.0941 56.0423C87.5991 55.7631 87.1996 55.5174 86.8959 55.3052C86.6033 55.093 86.3502 54.825 86.1364 54.5011C85.9226 54.166 85.8157 53.764 85.8157 53.2949C85.8157 52.5466 86.1195 51.9715 86.7271 51.5694C87.3347 51.1562 88.0716 50.9496 88.938 50.9496C89.7368 50.9496 90.3894 51.0948 90.8957 51.3851C91.4133 51.6643 91.6721 52.1278 91.6721 52.7756C91.6721 53.1553 91.5483 53.4457 91.3008 53.6467C91.0645 53.8477 90.7438 53.9483 90.3388 53.9483C90.0463 53.9483 89.8212 53.8868 89.6637 53.764C89.7537 53.4959 89.7987 53.2446 89.7987 53.0101C89.7987 52.6416 89.7031 52.3568 89.5118 52.1557C89.3318 51.9435 89.0618 51.8375 88.7017 51.8375Z" fill="#ffffff"/>
<path d="M92.4372 52.0385L92.4204 51.5359C92.9267 51.3349 93.4049 51.0668 93.8549 50.7318C94.3162 50.3967 94.7044 50.0282 95.0194 49.6261H95.5426V51.2846H97.0953V52.0385H95.5089V58.1364C95.5089 58.4714 95.5707 58.7227 95.6945 58.8902C95.8183 59.0577 96.0152 59.1638 96.2852 59.2085C96.229 59.4654 96.0771 59.672 95.8295 59.8283C95.5933 59.9959 95.3176 60.0796 95.0025 60.0796C94.0912 60.0796 93.6355 59.5659 93.6355 58.5384V52.0385H92.4372Z" fill="#ffffff"/>
<path d="M102.853 59.0577C102.639 59.4486 102.324 59.7334 101.908 59.9121C101.503 60.102 101.042 60.1969 100.524 60.1969C99.7477 60.1969 99.0951 59.9624 98.5663 59.4933C98.0487 59.0242 97.7899 58.4156 97.7899 57.6673C97.7899 55.858 99.4157 54.9534 102.667 54.9534V53.4959C102.667 52.9375 102.583 52.5243 102.414 52.2563C102.245 51.9771 101.925 51.8375 101.452 51.8375C101.058 51.8375 100.732 51.9435 100.473 52.1557C100.215 52.3568 100.085 52.6416 100.085 53.0101C100.085 53.2446 100.13 53.4959 100.22 53.764C100.063 53.8868 99.8377 53.9483 99.5451 53.9483C99.1401 53.9483 98.8194 53.8477 98.5831 53.6467C98.3469 53.4457 98.2287 53.1553 98.2287 52.7756C98.2287 52.2395 98.5325 51.8039 99.1401 51.4689C99.7477 51.1227 100.558 50.9496 101.57 50.9496C102.313 50.9496 102.898 51.0613 103.326 51.2846C103.753 51.4968 104.057 51.8319 104.237 52.2898C104.428 52.7365 104.524 53.3396 104.524 54.099V58.4546C104.524 59.0019 104.698 59.3704 105.047 59.5603C104.957 59.7278 104.822 59.8563 104.642 59.9456C104.473 60.035 104.276 60.0796 104.051 60.0796C103.725 60.0796 103.455 59.9903 103.241 59.8116C103.027 59.6217 102.898 59.3704 102.853 59.0577ZM101.182 59.0745C101.677 59.0745 102.049 58.8902 102.296 58.5217C102.544 58.1419 102.667 57.6729 102.667 57.1145V55.791C100.766 55.791 99.8152 56.3941 99.8152 57.6003C99.8152 58.047 99.9333 58.4044 100.17 58.6724C100.417 58.9405 100.755 59.0745 101.182 59.0745Z" fill="#ffffff"/>
<path d="M111.612 51.2846L111.73 52.273L107.781 58.7059L111.849 58.5719L111.73 59.8283H105.891L105.773 58.8064L109.671 52.4238L105.925 52.6416L106.06 51.2846H111.612Z" fill="#ffffff"/>
<path d="M114.074 47.7666C114.446 47.7666 114.744 47.856 114.969 48.0347C115.205 48.2133 115.323 48.4702 115.323 48.8053C115.323 49.1515 115.2 49.4195 114.952 49.6094C114.716 49.7881 114.406 49.8774 114.024 49.8774C113.652 49.8774 113.354 49.7881 113.129 49.6094C112.904 49.4307 112.792 49.1738 112.792 48.8388C112.792 48.4926 112.91 48.2301 113.146 48.0514C113.394 47.8615 113.703 47.7666 114.074 47.7666ZM114.952 58.4546C114.952 59.0019 115.126 59.3704 115.475 59.5603C115.385 59.7278 115.239 59.8563 115.036 59.9456C114.834 60.035 114.614 60.0796 114.378 60.0796C113.951 60.0796 113.63 59.9568 113.416 59.7111C113.202 59.4654 113.095 59.1192 113.095 58.6724V51.2846H114.952V58.4546Z" fill="#ffffff"/>
<path d="M120.372 50.9496C121.632 50.9496 122.566 51.3572 123.174 52.1725C123.781 52.9766 124.085 54.0655 124.085 55.4392C124.085 56.9023 123.792 58.0638 123.207 58.9237C122.622 59.7725 121.677 60.1969 120.372 60.1969C119.089 60.1969 118.15 59.7893 117.553 58.974C116.968 58.1587 116.676 57.0363 116.676 55.6067C116.676 54.2219 116.98 53.0995 117.587 52.2395C118.195 51.3796 119.123 50.9496 120.372 50.9496ZM120.372 59.1918C121.069 59.1918 121.525 58.8511 121.739 58.1699C121.953 57.4886 122.06 56.6063 122.06 55.523C122.06 54.529 121.941 53.6858 121.705 52.9934C121.48 52.3009 121.036 51.9547 120.372 51.9547C119.258 51.9547 118.701 53.1441 118.701 55.523C118.701 56.6063 118.802 57.4886 119.005 58.1699C119.219 58.8511 119.674 59.1918 120.372 59.1918Z" fill="#ffffff"/>
<path d="M125.738 51.2846L127.29 51.0836L127.375 52.5913C127.588 52.0552 127.915 51.6476 128.354 51.3684C128.804 51.0892 129.327 50.9496 129.923 50.9496C130.868 50.9496 131.526 51.212 131.898 51.7369C132.269 52.2507 132.455 53.038 132.455 54.099V58.4546C132.455 59.0019 132.629 59.3704 132.978 59.5603C132.888 59.7278 132.742 59.8563 132.539 59.9456C132.337 60.035 132.123 60.0796 131.898 60.0796C131.459 60.0796 131.133 59.9568 130.919 59.7111C130.705 59.4654 130.598 59.1192 130.598 58.6724V54.3336C130.598 53.63 130.519 53.105 130.362 52.7588C130.204 52.4126 129.856 52.2395 129.316 52.2395C128.629 52.2395 128.168 52.541 127.932 53.1441C127.707 53.7472 127.594 54.5234 127.594 55.4727V59.8283H125.738V51.2846Z" fill="#ffffff"/>
<path d="M135.599 47.7666C135.971 47.7666 136.269 47.856 136.494 48.0347C136.73 48.2133 136.848 48.4702 136.848 48.8053C136.848 49.1515 136.724 49.4195 136.477 49.6094C136.241 49.7881 135.931 49.8774 135.549 49.8774C135.177 49.8774 134.879 49.7881 134.654 49.6094C134.429 49.4307 134.317 49.1738 134.317 48.8388C134.317 48.4926 134.435 48.2301 134.671 48.0514C134.919 47.8615 135.228 47.7666 135.599 47.7666ZM136.477 58.4546C136.477 59.0019 136.651 59.3704 137 59.5603C136.91 59.7278 136.764 59.8563 136.561 59.9456C136.359 60.035 136.139 60.0796 135.903 60.0796C135.476 60.0796 135.155 59.9568 134.941 59.7111C134.727 59.4654 134.62 59.1192 134.62 58.6724V51.2846H136.477V58.4546Z" fill="#ffffff"/>
</svg>
