<svg width="41" height="40" viewBox="0 0 41 40" fill="none" xmlns="http://www.w3.org/2000/svg">
<mask id="path-1-inside-1_267_1390" fill="white">
<path fill-rule="evenodd" clip-rule="evenodd" d="M40.4008 20C40.4008 31.0457 31.3568 40 20.2004 40C9.04403 40 0 31.0457 0 20C0 8.9543 9.04403 0 20.2004 0C31.3568 0 40.4008 8.9543 40.4008 20ZM20.2314 35.4732C20.046 35.4732 19.8776 35.3661 19.8006 35.1991C19.3865 34.3007 18.6049 32.7472 17.6997 30.9483C13.8942 23.385 10.4783 16.4161 10.4783 14.2441C10.4783 8.91959 14.8535 4.58782 20.2313 4.58782C25.6092 4.58782 29.9844 8.91959 29.9844 14.2441C29.9844 16.4212 26.5595 23.4071 22.744 30.989C21.8478 32.7698 21.0739 34.3076 20.662 35.1994C20.585 35.3662 20.4167 35.4732 20.2314 35.4732ZM20.2314 5.52545C15.3758 5.52545 11.4255 9.43659 11.4255 14.2441C11.4255 16.3754 15.8837 25.2361 18.5475 30.5301C19.2036 31.8341 19.7952 33.0098 20.2317 33.9063C20.6643 33.0189 21.2485 31.8581 21.8963 30.5708L21.8969 30.5697L21.8969 30.5696C24.5679 25.2622 29.0375 16.3806 29.0375 14.2441C29.0374 9.43659 25.0871 5.52545 20.2314 5.52545ZM14.7022 14.2441C14.7022 17.2624 17.1824 19.7181 20.2311 19.7181C23.2816 19.7181 25.7634 17.2624 25.7634 14.2441C25.7634 11.2238 23.2816 8.76666 20.2311 8.76666C17.1824 8.76666 14.7022 11.2238 14.7022 14.2441ZM15.6493 14.244C15.6493 11.7408 17.7047 9.70429 20.2311 9.70429C22.7594 9.70429 24.8163 11.7409 24.8163 14.244C24.8163 16.7454 22.7594 18.7804 20.2311 18.7804C17.7047 18.7804 15.6493 16.7454 15.6493 14.244Z"/>
</mask>
<path fill-rule="evenodd" clip-rule="evenodd" d="M40.4008 20C40.4008 31.0457 31.3568 40 20.2004 40C9.04403 40 0 31.0457 0 20C0 8.9543 9.04403 0 20.2004 0C31.3568 0 40.4008 8.9543 40.4008 20ZM20.2314 35.4732C20.046 35.4732 19.8776 35.3661 19.8006 35.1991C19.3865 34.3007 18.6049 32.7472 17.6997 30.9483C13.8942 23.385 10.4783 16.4161 10.4783 14.2441C10.4783 8.91959 14.8535 4.58782 20.2313 4.58782C25.6092 4.58782 29.9844 8.91959 29.9844 14.2441C29.9844 16.4212 26.5595 23.4071 22.744 30.989C21.8478 32.7698 21.0739 34.3076 20.662 35.1994C20.585 35.3662 20.4167 35.4732 20.2314 35.4732ZM20.2314 5.52545C15.3758 5.52545 11.4255 9.43659 11.4255 14.2441C11.4255 16.3754 15.8837 25.2361 18.5475 30.5301C19.2036 31.8341 19.7952 33.0098 20.2317 33.9063C20.6643 33.0189 21.2485 31.8581 21.8963 30.5708L21.8969 30.5697L21.8969 30.5696C24.5679 25.2622 29.0375 16.3806 29.0375 14.2441C29.0374 9.43659 25.0871 5.52545 20.2314 5.52545ZM14.7022 14.2441C14.7022 17.2624 17.1824 19.7181 20.2311 19.7181C23.2816 19.7181 25.7634 17.2624 25.7634 14.2441C25.7634 11.2238 23.2816 8.76666 20.2311 8.76666C17.1824 8.76666 14.7022 11.2238 14.7022 14.2441ZM15.6493 14.244C15.6493 11.7408 17.7047 9.70429 20.2311 9.70429C22.7594 9.70429 24.8163 11.7409 24.8163 14.244C24.8163 16.7454 22.7594 18.7804 20.2311 18.7804C17.7047 18.7804 15.6493 16.7454 15.6493 14.244Z" fill="#2DA884"/>
<path d="M19.8006 35.1991L18.8924 35.6177L18.8925 35.6178L19.8006 35.1991ZM20.2314 35.4732L20.2311 36.4732H20.2314V35.4732ZM17.6997 30.9483L16.8064 31.3978L16.8064 31.3978L17.6997 30.9483ZM22.744 30.989L23.6372 31.4385L23.6372 31.4385L22.744 30.989ZM20.662 35.1994L19.7541 34.7801L19.7541 34.7803L20.662 35.1994ZM18.5475 30.5301L19.4408 30.0807V30.0807L18.5475 30.5301ZM20.2317 33.9063L19.3327 34.3441L20.2312 36.1893L21.1306 34.3445L20.2317 33.9063ZM21.8963 30.5708L21.0036 30.1202L21.003 30.1213L21.8963 30.5708ZM21.8969 30.5697L21.0394 30.0552L21.0206 30.0864L21.0042 30.119L21.8969 30.5697ZM21.8969 30.5696L22.7544 31.0841L22.7735 31.0523L22.7902 31.0192L21.8969 30.5696ZM29.0375 14.2441H30.0375V14.2441L29.0375 14.2441ZM20.2004 41C31.8996 41 41.4008 31.6074 41.4008 20H39.4008C39.4008 30.484 30.8139 39 20.2004 39V41ZM-1 20C-1 31.6074 8.50117 41 20.2004 41V39C9.58689 39 1 30.484 1 20H-1ZM20.2004 -1C8.50117 -1 -1 8.39264 -1 20H1C1 9.51597 9.58689 1 20.2004 1V-1ZM41.4008 20C41.4008 8.39264 31.8996 -1 20.2004 -1V1C30.8139 1 39.4008 9.51597 39.4008 20H41.4008ZM18.8925 35.6178C19.1347 36.1433 19.6603 36.473 20.2311 36.4732L20.2318 34.4732C20.4317 34.4733 20.6204 34.5889 20.7087 34.7804L18.8925 35.6178ZM16.8064 31.3978C17.716 33.2056 18.4874 34.7391 18.8924 35.6177L20.7087 34.7805C20.2856 33.8623 19.4937 32.2888 18.593 30.4988L16.8064 31.3978ZM9.47834 14.2441C9.47834 14.9755 9.74888 15.9629 10.1284 17.0394C10.5215 18.1542 11.0801 19.494 11.7498 20.9843C13.0897 23.9663 14.9046 27.618 16.8064 31.3978L18.593 30.4988C16.6893 26.7152 14.8935 23.1009 13.5741 20.1646C12.9141 18.6958 12.381 17.4134 12.0146 16.3743C11.6348 15.2969 11.4783 14.5987 11.4783 14.2441H9.47834ZM20.2313 3.58782C14.3106 3.58782 9.47834 8.35793 9.47834 14.2441H11.4783C11.4783 9.48126 15.3964 5.58782 20.2313 5.58782V3.58782ZM30.9844 14.2441C30.9844 8.35793 26.1521 3.58782 20.2313 3.58782V5.58782C25.0664 5.58782 28.9844 9.48126 28.9844 14.2441H30.9844ZM23.6372 31.4385C25.544 27.6495 27.3637 23.9889 28.7071 20.9997C29.3786 19.5057 29.9387 18.1627 30.3327 17.0453C30.7133 15.9662 30.9844 14.9768 30.9844 14.2441H28.9844C28.9844 14.5999 28.8274 15.3001 28.4466 16.3801C28.0792 17.4218 27.5447 18.7074 26.8829 20.1798C25.56 23.1233 23.7595 26.7466 21.8507 30.5395L23.6372 31.4385ZM21.5698 35.6187C21.9728 34.7463 22.7367 33.228 23.6372 31.4385L21.8507 30.5395C20.9589 32.3116 20.175 33.8689 19.7541 34.7801L21.5698 35.6187ZM20.2314 36.4732C20.8025 36.4732 21.3276 36.1433 21.5699 35.6185L19.7541 34.7803C19.8423 34.5891 20.0309 34.4732 20.2314 34.4732V36.4732ZM12.4255 14.2441C12.4255 9.99824 15.9187 6.52545 20.2314 6.52545V4.52545C14.8329 4.52545 10.4255 8.87493 10.4255 14.2441H12.4255ZM19.4408 30.0807C18.1073 27.4305 16.3349 23.9076 14.8959 20.7828C14.1759 19.2194 13.5464 17.7706 13.0989 16.5892C12.8749 15.998 12.7016 15.4872 12.5856 15.0705C12.4644 14.635 12.4255 14.3702 12.4255 14.2441H10.4255C10.4255 14.6508 10.5259 15.1291 10.6589 15.6068C10.7971 16.1033 10.9929 16.6758 11.2286 17.2977C11.7002 18.5425 12.3517 20.0395 13.0793 21.6194C14.5353 24.7813 16.3239 28.3357 17.6542 30.9796L19.4408 30.0807ZM21.1308 33.4685C20.6907 32.5648 20.0958 31.3824 19.4408 30.0807L17.6542 30.9796C18.3115 32.2858 18.8996 33.4548 19.3327 34.3441L21.1308 33.4685ZM21.003 30.1213C20.3563 31.4064 19.7689 32.5737 19.3329 33.4681L21.1306 34.3445C21.5598 33.4641 22.1406 32.3097 22.7895 31.0204L21.003 30.1213ZM21.0042 30.119L21.0036 30.1202L22.789 31.0215L22.7896 31.0203L21.0042 30.119ZM21.0394 30.0551L21.0394 30.0552L22.7544 31.0841L22.7544 31.0841L21.0394 30.0551ZM28.0375 14.2441C28.0375 14.3708 27.9984 14.6365 27.8769 15.0731C27.7606 15.4909 27.5868 16.003 27.3623 16.5956C26.9135 17.78 26.2824 19.2322 25.5605 20.7994C24.1178 23.9318 22.3407 27.4632 21.0036 30.1201L22.7902 31.0192C24.1241 28.3686 25.9173 24.8055 27.3771 21.6361C28.1065 20.0524 28.7597 18.552 29.2325 17.3043C29.4687 16.6809 29.6651 16.1071 29.8036 15.6095C29.9369 15.1307 30.0375 14.6515 30.0375 14.2441H28.0375ZM20.2314 6.52545C24.5442 6.52545 28.0375 9.99826 28.0375 14.2441L30.0375 14.2441C30.0374 8.87492 25.6299 4.52545 20.2314 4.52545V6.52545ZM20.2311 18.7181C17.7253 18.7181 15.7022 16.7008 15.7022 14.2441H13.7022C13.7022 17.8241 16.6396 20.7181 20.2311 20.7181V18.7181ZM24.7634 14.2441C24.7634 16.7002 22.7393 18.7181 20.2311 18.7181V20.7181C23.8238 20.7181 26.7634 17.8247 26.7634 14.2441H24.7634ZM20.2311 9.76666C22.7388 9.76666 24.7634 11.7854 24.7634 14.2441H26.7634C26.7634 10.6621 23.8245 7.76666 20.2311 7.76666V9.76666ZM15.7022 14.2441C15.7022 11.7849 17.7259 9.76666 20.2311 9.76666V7.76666C16.639 7.76666 13.7022 10.6627 13.7022 14.2441H15.7022ZM20.2311 8.70429C17.1611 8.70429 14.6493 11.1798 14.6493 14.244H16.6493C16.6493 12.3018 18.2482 10.7043 20.2311 10.7043V8.70429ZM25.8163 14.244C25.8163 11.1792 23.3023 8.70429 20.2311 8.70429V10.7043C22.2165 10.7043 23.8163 12.3025 23.8163 14.244H25.8163ZM20.2311 19.7804C23.3015 19.7804 25.8163 17.3077 25.8163 14.244H23.8163C23.8163 16.183 22.2172 17.7804 20.2311 17.7804V19.7804ZM14.6493 14.244C14.6493 17.307 17.1618 19.7804 20.2311 19.7804V17.7804C18.2475 17.7804 16.6493 16.1837 16.6493 14.244H14.6493Z" fill="#2DA884" mask="url(#path-1-inside-1_267_1390)"/>
</svg>
