<svg width="25" height="25" viewBox="0 0 25 25" fill="none" xmlns="http://www.w3.org/2000/svg">
<path fill-rule="evenodd" clip-rule="evenodd" d="M24.6857 12.2252C24.6857 18.7974 19.1596 24.1252 12.3429 24.1252C9.83409 24.1252 7.50014 23.4036 5.55213 22.1639L1.02883 23.1331L2.49056 19.3945C2.40264 19.2824 2.31672 19.1687 2.23287 19.0535C0.825856 17.1206 0 14.7659 0 12.2252C0 5.65301 5.52609 0.325195 12.3429 0.325195C19.1596 0.325195 24.6857 5.65301 24.6857 12.2252ZM12.7526 17.7861C14.4123 18.4494 15.5734 18.7588 16.4053 18.7588C16.7311 18.7588 16.9739 18.7151 17.178 18.6739C18.2032 18.4613 19.4787 17.7306 19.8218 16.7953C20.1082 16.0138 20.1822 15.1856 19.9938 14.8699C19.8638 14.6493 19.6367 14.5438 19.3487 14.4105L19.1553 14.3193C19.1538 14.3186 19.1424 14.3131 19.1222 14.3035C18.8575 14.1769 17.0941 13.3336 16.7386 13.2142C16.5855 13.1586 16.4357 13.1309 16.2917 13.1309C16.0457 13.1309 15.6919 13.2134 15.4047 13.6045L15.241 13.8258C14.9678 14.1947 14.7094 14.543 14.5053 14.7548C14.3926 14.8699 14.242 14.8357 14.1227 14.7881L14.01 14.7437L14.0075 14.7427C13.5523 14.5647 12.6082 14.1953 11.4402 13.1935C10.5383 12.42 9.89074 11.468 9.58628 10.9722C9.5328 10.8826 9.5328 10.8826 9.69161 10.7033C9.77069 10.6073 9.84978 10.5259 9.92782 10.4456C9.94072 10.4323 9.9536 10.419 9.96644 10.4058C10.0446 10.3264 10.1211 10.2471 10.2363 10.1194L10.2383 10.1172C10.4011 9.93583 10.5199 9.8034 10.6412 9.55372C10.8691 9.12532 10.6642 8.71358 10.5968 8.57951C10.5405 8.46592 10.2041 7.67948 9.90409 6.97803C9.87931 6.9201 9.85478 6.86275 9.83067 6.8064L9.53198 6.10827C9.24398 5.44425 8.94116 5.31732 8.41865 5.29748C8.29111 5.29034 8.15122 5.2832 7.99488 5.2832C7.37444 5.2832 6.82231 5.47757 6.45285 5.8433C6.06034 6.22648 5.14286 7.12374 5.14286 8.89208C5.14286 10.401 6.07022 11.8465 6.64293 12.6009L6.70464 12.6858C8.4384 15.1094 10.5861 16.9214 12.7526 17.7861ZM7.06916 6.36928C7.25184 6.18919 7.60567 6.07654 7.99406 6.07654C8.13312 6.07654 8.25819 6.08288 8.37669 6.09082C8.49183 6.09506 8.55566 6.09741 8.60306 6.12652C8.66203 6.16273 8.69557 6.24034 8.77083 6.4145L9.06871 7.11025C9.39044 7.86551 9.79035 8.79688 9.85289 8.92381C9.93847 9.09517 9.9253 9.15943 9.90144 9.20465C9.82162 9.36887 9.76073 9.4371 9.57559 9.64257C9.50482 9.72191 9.4357 9.79251 9.36658 9.86312L9.35433 9.87567C9.25308 9.97936 9.15175 10.0831 9.04814 10.2074C8.87863 10.3986 8.52562 10.7969 8.87369 11.3752C9.20448 11.9139 9.90638 12.9428 10.8905 13.7885C12.1668 14.8833 13.2406 15.3022 13.6989 15.4807L13.8034 15.522C14.2618 15.706 14.7941 15.6172 15.1044 15.2975C15.3462 15.0468 15.6185 14.6789 15.9072 14.2887L15.9075 14.2883L16.072 14.0662C16.1757 13.925 16.2522 13.925 16.2893 13.925C16.3337 13.925 16.3864 13.9353 16.4555 13.9607C16.7163 14.0487 18.2074 14.7509 18.7842 15.0293L18.9891 15.1261C19.1084 15.1816 19.2565 15.2491 19.2581 15.2245C19.2878 15.3284 19.2927 15.8512 19.0426 16.5311C18.8113 17.1618 17.8033 17.7322 17.0027 17.8988C16.8348 17.9329 16.6513 17.9662 16.4045 17.9662C15.6845 17.9662 14.6238 17.6767 13.0661 17.0539C11.0444 16.2471 9.0251 14.5359 7.38103 12.2368L7.28558 12.1059C6.44626 11.0008 5.96489 9.82901 5.96489 8.89208C5.96489 7.4501 6.68873 6.74163 7.0683 6.37012L7.06916 6.36928Z" fill="white"/>
</svg>
