<svg width="41" height="40" viewBox="0 0 41 40" fill="none" xmlns="http://www.w3.org/2000/svg">
<path fill-rule="evenodd" clip-rule="evenodd" d="M40.4008 20C40.4008 31.0457 31.3568 40 20.2004 40C9.04403 40 0 31.0457 0 20C0 8.9543 9.04403 0 20.2004 0C31.3568 0 40.4008 8.9543 40.4008 20ZM10.2892 10.1867C8.24074 10.1867 6.5723 11.8386 6.5723 13.8667V26.1334C6.5723 28.1615 8.24074 29.8134 10.2892 29.8134H30.1125C32.1609 29.8134 33.8294 28.1615 33.8294 26.1334V13.8667C33.8294 11.8386 32.1609 10.1867 30.1125 10.1867H10.2892ZM10.2892 11.4134H30.1125C31.496 11.4134 32.5904 12.497 32.5904 13.8667V26.1334C32.5904 27.5031 31.496 28.5867 30.1125 28.5867H10.2892C8.90569 28.5867 7.81126 27.5031 7.81126 26.1334V13.8667C7.81126 12.497 8.90569 11.4134 10.2892 11.4134ZM10.6797 13.91C10.7581 13.8791 10.8421 13.8644 10.9265 13.8668H10.9265C11.0845 13.8714 11.2347 13.9357 11.3463 14.0465L18.7801 21.4065C19.5697 22.1883 20.8313 22.1883 21.621 21.4065L29.0547 14.0465C29.1709 13.9315 29.3284 13.8669 29.4927 13.8669C29.657 13.8669 29.8145 13.9315 29.9307 14.0465C30.0469 14.1615 30.1121 14.3175 30.1121 14.4801C30.1121 14.6428 30.0469 14.7988 29.9307 14.9138L22.497 22.2738C21.2339 23.5244 19.1672 23.5244 17.9041 22.2738L10.4703 14.9138C10.3542 14.7988 10.2889 14.6428 10.2889 14.4801C10.2889 14.3175 10.3542 14.1615 10.4703 14.0465C10.53 13.9873 10.6012 13.9409 10.6797 13.91Z" fill="#2DA884"/>
</svg>
