<?xml version="1.0" standalone="no"?>
<!DOCTYPE svg PUBLIC "-//W3C//DTD SVG 20010904//EN"
 "http://www.w3.org/TR/2001/REC-SVG-20010904/DTD/svg10.dtd">
<svg version="1.0" xmlns="http://www.w3.org/2000/svg"
 width="250.000000pt" height="250.000000pt" viewBox="0 0 250.000000 250.000000"
 preserveAspectRatio="xMidYMid meet">
<metadata>
Created by potrace 1.14, written by Peter Selinger 2001-2017
</metadata>
<g transform="translate(0.000000,250.000000) scale(0.100000,-0.100000)"
fill="#000000" stroke="none">
<path d="M363 2291 c-123 -78 -7 -438 210 -651 115 -113 229 -167 391 -187 86
-10 97 -28 24 -38 -152 -20 -243 -128 -304 -361 -35 -133 -37 -336 -5 -459 44
-163 83 -221 246 -358 l60 -50 3 40 c3 40 3 41 52 47 85 11 205 80 290 165 87
88 140 173 177 286 23 68 27 97 26 195 0 63 -2 124 -4 135 -3 16 4 20 49 27
95 14 165 65 197 142 15 35 22 157 13 221 -3 19 4 20 112 26 134 7 187 26 243
88 41 46 52 94 38 168 -20 104 -103 223 -202 293 l-51 35 77 5 c60 4 81 9 89
23 8 12 8 22 0 35 -18 28 -204 30 -273 2 -29 -11 -67 -20 -85 -20 -29 0 -36 5
-45 31 -8 23 -8 36 0 45 15 18 71 36 153 48 75 12 100 31 80 64 -24 38 -181
19 -272 -34 -59 -35 -67 -56 -48 -129 l15 -59 -43 -40 c-46 -43 -88 -117 -101
-175 l-7 -33 -41 73 c-100 182 -234 309 -404 379 -105 44 -203 51 -267 20 -46
-22 -48 -22 -114 -5 -37 9 -107 19 -157 22 -78 4 -94 2 -122 -16z m227 -83
c114 -21 280 -93 391 -169 70 -47 159 -144 195 -213 l27 -52 -60 -59 c-40 -41
-67 -79 -83 -119 l-25 -59 -76 6 c-129 10 -230 60 -333 165 -99 102 -164 205
-205 331 -27 82 -29 178 -3 184 21 6 99 -1 172 -15z m315 11 c112 -21 254
-111 347 -220 50 -58 118 -166 118 -186 0 -9 -15 -13 -42 -13 -43 0 -43 0 -78
68 -48 94 -177 221 -295 289 -142 83 -139 79 -50 62z m932 -220 l28 -11 -35
-14 c-50 -21 -70 -51 -70 -105 0 -89 77 -159 178 -159 39 0 57 5 72 20 18 18
23 30 33 85 6 31 57 -82 57 -127 0 -56 -18 -85 -69 -110 -39 -19 -62 -22 -156
-23 -126 0 -188 16 -248 66 -53 44 -71 83 -71 159 -1 130 86 230 200 230 29 0
65 -5 81 -11z m-389 -300 c13 -5 31 -23 40 -41 29 -53 92 -117 146 -146 58
-31 74 -66 75 -163 2 -106 -41 -164 -130 -178 -103 -17 -267 25 -338 85 -135
116 -157 263 -56 382 60 71 167 96 263 61z m-318 -449 c75 -83 118 -110 232
-146 53 -16 59 -21 72 -58 21 -59 27 -94 18 -100 -15 -9 -186 45 -269 85 -45
21 -109 62 -143 90 -63 52 -140 142 -140 163 0 20 61 45 111 45 46 1 48 0 119
-79z m-90 -235 c86 -57 198 -106 310 -136 47 -12 89 -26 94 -30 4 -4 -2 -41
-14 -83 -27 -89 -25 -89 -153 -51 -107 31 -238 91 -327 150 -70 46 -180 156
-180 179 0 16 34 117 50 146 11 21 14 19 81 -54 38 -41 101 -96 139 -121z
m-104 -242 c97 -59 236 -119 338 -146 l87 -23 -37 -48 -37 -48 -70 7 c-158 15
-340 89 -427 173 l-50 48 0 85 c0 47 3 89 6 92 4 4 32 -17 63 -46 32 -29 88
-71 127 -94z m-109 -221 c71 -42 171 -80 275 -104 l92 -22 -69 -33 c-89 -42
-185 -47 -231 -11 -51 40 -98 109 -118 176 -9 28 -7 28 51 -6z"/>
</g>
</svg>
